<svg xmlns="http://www.w3.org/2000/svg" viewBox="0 0 64 64" role="img" aria-label="Sayan Mondal logo"><defs><linearGradient id="bg" x1="6" y1="4" x2="58" y2="60" gradientUnits="userSpaceOnUse"><stop stop-color="#172642"/><stop offset="1" stop-color="#060b14"/></linearGradient><linearGradient id="accent" x1="10" y1="14" x2="34" y2="50" gradientUnits="userSpaceOnUse"><stop stop-color="#8b7cff"/><stop offset=".52" stop-color="#43c4e5"/><stop offset="1" stop-color="#c5f36d"/></linearGradient></defs><rect x="2" y="2" width="60" height="60" rx="17" fill="url(#bg)"/><rect x="2.75" y="2.75" width="58.5" height="58.5" rx="16.25" fill="none" stroke="#fff" stroke-opacity=".14" stroke-width="1.5"/><path d="M30 17a17 17 0 0 0-10-3.2c-7.1 0-11.7 3.9-11.7 9.5 0 6.5 5.2 8.5 10.5 10.1 3.6 1.2 5.4 2.1 5.4 4.5 0 2.3-1.9 3.7-5.4 3.7a15 15 0 0 1-9.4-3.5l-3.9 7A21 21 0 0 0 19 49.4c8.1 0 12.8-4.5 12.8-11.2 0-6.9-5.3-9.1-10.6-10.7-3.5-1.1-5.4-2-5.4-4.2 0-1.9 1.7-3.1 4.6-3.1 2.5 0 4.8.7 6.8 2.1z" fill="url(#accent)"/><path d="M31 50V15h7.3L45 27.7 51.7 15H59v35h-7.4V29.7L47.5 38h-5L38.4 29.7V50z" fill="#f7f9fc"/><path d="M31 32.2 38.4 46v4H31z" fill="#c5f36d" opacity=".9"/><circle cx="53.5" cy="10.5" r="2.5" fill="#c5f36d"/></svg>
